<svg width="40" height="40" viewBox="0 0 40 40" fill="none" xmlns="http://www.w3.org/2000/svg">
    <defs>
        <linearGradient id="bellGradient" x1="0" y1="0" x2="40" y2="40" gradientUnits="userSpaceOnUse">
            <stop offset="0%" stop-color="#FFD700"/>
            <stop offset="100%" stop-color="#FFA500"/>
        </linearGradient>
        <linearGradient id="ropeGradient" x1="0" y1="0" x2="10" y2="10" gradientUnits="userSpaceOnUse">
            <stop offset="0%" stop-color="#8B4513"/>
            <stop offset="100%" stop-color="#A0522D"/>
        </linearGradient>
    </defs>
    <path d="M20 2C21.1 2 22 2.9 22 4C22 5.1 21.1 6 20 6C18.9 6 18 5.1 18 4C18 2.9 18.9 2 20 2ZM20 8C25.52 8 30 12.48 30 18V24L32 26V28H8V26L10 24V18C10 12.48 14.48 8 20 8ZM12 28H28V30H12V28Z" fill="url(#bellGradient)"/>
    <circle cx="20" cy="32" r="2" fill="url(#bellGradient)"/>
    <line x1="20" y1="26" x2="20" y2="30" stroke="url(#bellGradient)" stroke-width="2"/>
    <line x1="20" y1="0" x2="20" y2="2" stroke="url(#ropeGradient)" stroke-width="2"/>
    <circle cx="20" cy="1" r="1" fill="url(#ropeGradient)"/>
</svg>
